# 3ds Max Wavefront OBJ Exporter v0.99 - (c)2007 guruware
# File Created: 27.03.2026 08:48:31

mtllib Statue.mtl

#
# object Statue
#

v  0.28 1.12 -0.08
v  0.28 1.26 -0.23
v  0.23 1.52 -0.21
v  0.24 1.47 0.09
v  0.22 1.07 -0.04
v  0.14 0.93 0.09
v  -0.01 1.30 0.25
v  -0.00 0.88 0.15
v  -0.23 -1.58 0.22
v  -0.18 -1.29 0.09
v  -0.32 -1.31 0.07
v  -0.36 -1.56 0.17
v  -0.33 -1.28 -0.10
v  -0.48 -1.30 -0.17
v  -0.44 -1.40 -0.21
v  -0.46 -1.63 -0.12
v  -0.50 -1.57 0.01
v  -0.36 -1.58 0.08
v  0.37 0.75 -0.10
v  0.28 0.94 -0.09
v  0.32 0.75 -0.03
v  0.43 0.87 -0.12
v  0.43 0.94 -0.23
v  0.34 1.01 -0.25
v  0.53 -1.25 -0.13
v  0.52 -1.22 -0.02
v  0.49 -1.29 -0.19
v  0.46 -1.27 -0.06
v  0.40 -1.24 0.13
v  0.27 -1.29 -0.02
v  0.24 -1.31 0.09
v  0.27 -1.08 0.19
v  0.00 -0.86 0.22
v  0.13 -0.81 0.21
v  -0.03 -0.68 0.23
v  -0.07 -0.78 0.15
v  -0.34 -0.09 0.07
v  -0.23 -0.25 0.12
v  0.13 -1.29 0.09
v  -0.04 -1.29 -0.05
v  0.06 -1.31 -0.05
v  -0.19 -0.50 0.09
v  -0.31 -0.23 0.01
v  -0.30 -0.81 0.14
v  -0.35 -0.13 -0.12
v  -0.48 -1.27 -0.01
v  -0.60 -1.30 -0.20
v  -0.49 -0.82 0.02
v  -0.54 -0.95 -0.12
v  -0.60 -0.88 -0.21
v  -0.48 -0.10 -0.14
v  -0.41 -0.08 -0.15
v  -0.51 -0.10 -0.21
v  0.11 1.64 -0.22
v  0.19 1.58 -0.14
v  -0.10 1.58 -0.22
v  -0.02 1.65 -0.13
v  -0.22 1.53 -0.14
v  -0.27 1.19 -0.22
v  -0.37 0.93 -0.22
v  0.55 0.47 -0.23
v  0.23 0.19 -0.24
v  0.56 0.05 -0.22
v  -0.49 0.49 -0.22
v  -0.51 0.58 -0.16
v  0.32 0.11 -0.22
v  0.43 -0.08 -0.20
v  0.32 -0.12 -0.11
v  0.58 -0.11 -0.05
v  0.44 -0.21 -0.03
v  -0.51 0.17 -0.22
v  -0.51 0.21 -0.16
v  -0.37 -0.14 -0.21
v  0.05 -0.77 -0.22
v  0.35 -0.35 -0.21
v  -0.20 -0.74 -0.22
v  0.45 -0.83 -0.14
v  0.45 -0.94 -0.20
v  -0.48 -1.31 -0.21
v  -0.34 -1.60 -0.20
v  0.02 -1.63 -0.15
v  -0.02 -1.29 -0.20
v  0.39 -1.65 -0.11
v  0.60 -1.59 -0.16
v  0.13 -1.47 -0.19
v  0.04 1.56 0.20
v  -0.14 1.58 0.15
v  -0.14 1.41 0.17
v  -0.23 1.40 0.10
v  0.31 0.13 -0.13
v  0.27 0.51 -0.12
v  0.16 0.36 -0.00
v  0.21 0.19 -0.14
v  0.12 0.16 0.04
v  0.23 0.67 0.12
v  -0.09 0.35 0.03
v  0.02 0.14 0.02
v  0.02 0.82 -0.00
v  -0.17 1.01 -0.02
v  -0.21 0.67 0.12
v  -0.37 0.92 -0.11
v  -0.26 1.11 -0.06
v  -0.31 0.61 -0.00
v  -0.27 0.37 -0.05
v  -0.16 0.15 0.03
v  -0.17 0.15 0.12
v  -0.17 -0.07 0.06
v  -0.23 -0.08 0.11
v  -0.35 0.13 0.13
v  -0.41 -0.03 0.10
v  -0.47 0.23 -0.03
v  -0.38 0.49 -0.01
v  -0.46 0.74 -0.09
v  -0.47 0.43 -0.07
v  0.36 -1.59 0.16
v  0.19 -1.61 0.17
v  0.35 -1.62 0.07
v  0.58 -1.63 -0.06
v  0.12 -1.64 0.10
v  -0.36 -1.65 0.03
v  -0.00 -1.51 0.14
v  0.13 -1.50 0.13
v  0.33 -0.22 -0.03
v  0.21 -0.25 0.08
v  0.38 -0.66 -0.03
v  0.07 -0.32 0.13
v  0.46 -0.81 0.03
v  0.16 -0.48 0.21
v  0.59 -1.51 -0.05
v  0.21 -1.46 0.20
# 130 vertices

vn 0.94 0.17 0.29
vn 0.46 0.15 -0.88
vn 0.97 0.23 -0.11
vn 0.83 0.18 0.53
vn 0.79 -0.30 0.53
vn 0.71 -0.27 0.65
vn 0.10 -0.09 0.99
vn -0.49 -0.39 0.78
vn 0.10 -0.03 1.00
vn 0.03 -0.09 1.00
vn -0.44 -0.02 0.90
vn -0.67 0.33 0.67
vn -0.84 -0.03 0.54
vn -0.90 0.10 0.43
vn -0.18 -0.08 -0.98
vn -0.51 -0.77 -0.38
vn -0.92 -0.11 0.37
vn -0.50 -0.70 0.51
vn 0.51 0.18 0.84
vn 0.32 0.09 0.94
vn 0.26 0.17 0.95
vn 0.74 0.19 0.64
vn 0.90 0.41 -0.14
vn 0.02 0.02 -1.00
vn 0.98 0.11 -0.19
vn 0.90 0.04 0.43
vn 0.45 0.04 -0.89
vn 0.27 -0.94 0.21
vn 0.44 -0.64 0.64
vn 0.69 0.11 0.72
vn -0.02 -0.23 0.97
vn 0.40 -0.02 0.91
vn -0.48 -0.29 0.83
vn 0.03 0.07 1.00
vn -0.08 0.13 0.99
vn -0.39 -0.19 0.90
vn -0.70 -0.26 0.66
vn -0.12 0.10 0.99
vn -0.28 -0.22 0.93
vn 0.33 0.17 0.93
vn -0.15 0.35 0.93
vn -0.24 -0.01 0.97
vn -0.67 0.14 0.72
vn -0.28 0.02 0.96
vn -0.85 -0.01 0.52
vn -0.66 -0.26 0.70
vn -0.96 -0.21 0.17
vn -0.79 0.14 0.59
vn -0.80 0.08 0.60
vn -0.36 0.02 -0.93
vn -0.61 0.07 0.79
vn -0.12 0.06 0.99
vn -0.64 0.03 -0.77
vn 0.30 0.90 -0.31
vn 0.67 0.73 0.13
vn -0.11 0.13 -0.99
vn -0.32 0.95 -0.03
vn -0.87 0.47 -0.11
vn -0.49 0.11 -0.86
vn -0.13 0.04 -0.99
vn 0.64 0.08 -0.77
vn 0.03 -0.02 -1.00
vn 0.38 -0.13 -0.92
vn -0.08 0.00 -1.00
vn -0.99 0.16 -0.05
vn -0.48 -0.30 -0.82
vn 0.08 -0.56 -0.82
vn -0.88 -0.45 -0.15
vn 0.46 -0.02 0.89
vn -0.18 -0.39 0.90
vn -0.38 -0.01 -0.92
vn -0.96 -0.15 0.23
vn -0.03 0.00 -1.00
vn 0.00 -0.02 -1.00
vn 0.40 0.05 -0.91
vn -0.00 -0.02 -1.00
vn 0.98 0.20 0.03
vn 0.44 0.05 -0.90
vn -0.04 -0.04 -1.00
vn 0.02 -0.14 -0.99
vn 0.02 -0.77 -0.64
vn 0.03 -0.07 -1.00
vn 0.04 -1.00 -0.08
vn 0.22 -0.24 -0.94
vn 0.02 -0.07 -1.00
vn 0.31 0.73 0.61
vn -0.43 0.77 0.48
vn -0.56 0.02 0.83
vn -0.87 -0.06 0.49
vn -0.51 -0.01 0.86
vn 0.02 -0.29 0.96
vn 0.64 -0.24 0.73
vn 0.91 0.24 0.35
vn 0.49 0.11 0.86
vn 0.31 -0.02 0.95
vn -0.07 -0.20 0.98
vn 0.02 0.14 0.99
vn 0.07 0.25 0.96
vn -0.65 -0.32 0.69
vn -0.24 0.13 0.96
vn -0.54 0.34 0.77
vn -0.88 0.08 0.47
vn -0.53 0.03 0.85
vn -0.07 0.12 0.99
vn 0.24 0.17 0.96
vn 0.42 0.30 0.85
vn 0.29 0.29 0.91
vn 0.03 0.09 1.00
vn -0.27 0.21 0.94
vn -0.90 -0.32 0.30
vn -0.85 0.06 0.52
vn 0.25 0.24 0.94
vn -0.73 0.23 0.64
vn -0.91 0.04 0.40
vn 0.79 0.14 0.59
vn -0.05 -0.79 0.61
vn 0.52 -0.30 0.80
vn 0.45 -0.81 0.38
vn -0.06 -0.90 0.42
vn -0.09 -0.99 0.13
vn 0.29 0.49 0.82
vn -0.74 0.04 0.67
vn 0.92 0.23 0.33
vn 0.50 0.17 0.85
vn 0.75 0.18 0.63
vn 0.43 0.34 0.84
vn 0.82 0.23 0.53
vn 0.31 0.20 0.93
vn 0.58 0.39 0.72
vn -0.03 0.23 0.97
# 130 vertex normals

vt 0.29 0.54 0.00
vt 0.34 0.53 0.00
vt 0.38 0.58 0.00
vt 0.33 0.62 0.00
vt 0.25 0.54 0.00
vt 0.20 0.55 0.00
vt 0.23 0.66 0.00
vt 0.15 0.57 0.00
vt 0.26 0.35 0.00
vt 0.35 0.37 0.00
vt 0.33 0.41 0.00
vt 0.26 0.39 0.00
vt 0.35 0.45 0.00
vt 0.33 0.50 0.00
vt 0.30 0.51 0.00
vt 0.24 0.49 0.00
vt 0.25 0.45 0.00
vt 0.24 0.41 0.00
vt 0.95 0.95 0.00
vt 0.96 0.89 0.00
vt 0.97 0.95 0.00
vt 0.92 0.92 0.00
vt 0.95 0.84 0.00
vt 0.89 0.89 0.00
vt 0.89 0.87 0.00
vt 0.91 0.80 0.00
vt 0.43 0.04 0.00
vt 0.41 0.07 0.00
vt 0.42 0.02 0.00
vt 0.40 0.05 0.00
vt 0.37 0.09 0.00
vt 0.34 0.05 0.00
vt 0.32 0.07 0.00
vt 0.33 0.14 0.00
vt 0.25 0.20 0.00
vt 0.28 0.21 0.00
vt 0.24 0.25 0.00
vt 0.22 0.21 0.00
vt 0.12 0.40 0.00
vt 0.16 0.37 0.00
vt 0.29 0.07 0.00
vt 0.25 0.04 0.00
vt 0.28 0.04 0.00
vt 0.21 0.07 0.00
vt 0.17 0.30 0.00
vt 0.11 0.35 0.00
vt 0.16 0.20 0.00
vt 0.16 0.07 0.00
vt 0.08 0.37 0.00
vt 0.11 0.08 0.00
vt 0.13 0.03 0.00
vt 0.09 0.04 0.00
vt 0.05 0.06 0.00
vt 0.11 0.18 0.00
vt 0.07 0.14 0.00
vt 0.04 0.16 0.00
vt 0.04 0.37 0.00
vt 0.06 0.39 0.00
vt 0.02 0.37 0.00
vt 0.74 0.94 0.00
vt 0.78 0.97 0.00
vt 0.74 0.96 0.00
vt 0.73 0.86 0.00
vt 0.83 0.95 0.00
vt 0.81 0.99 0.00
vt 0.87 0.94 0.00
vt 0.86 0.84 0.00
vt 0.70 0.79 0.00
vt 0.89 0.76 0.00
vt 0.67 0.77 0.00
vt 0.64 0.63 0.00
vt 0.73 0.56 0.00
vt 0.63 0.53 0.00
vt 0.93 0.64 0.00
vt 0.95 0.67 0.00
vt 0.69 0.53 0.00
vt 0.66 0.48 0.00
vt 0.68 0.45 0.00
vt 0.61 0.46 0.00
vt 0.64 0.43 0.00
vt 0.94 0.55 0.00
vt 0.95 0.56 0.00
vt 0.90 0.46 0.00
vt 0.94 0.47 0.00
vt 0.97 0.25 0.00
vt 0.79 0.28 0.00
vt 0.71 0.40 0.00
vt 0.86 0.29 0.00
vt 0.67 0.26 0.00
vt 0.68 0.23 0.00
vt 0.94 0.10 0.00
vt 0.95 0.13 0.00
vt 0.96 0.12 0.00
vt 0.90 0.05 0.00
vt 0.94 0.03 0.00
vt 0.81 0.03 0.00
vt 0.81 0.13 0.00
vt 0.70 0.02 0.00
vt 0.65 0.04 0.00
vt 0.77 0.08 0.00
vt 0.67 0.13 0.00
vt 0.65 0.14 0.00
vt 0.39 0.39 0.00
vt 0.41 0.41 0.00
vt 0.37 0.48 0.00
vt 0.44 0.40 0.00
vt 0.42 0.51 0.00
vt 0.42 0.57 0.00
vt 0.47 0.51 0.00
vt 0.48 0.43 0.00
vt 0.46 0.56 0.00
vt 0.54 0.47 0.00
vt 0.50 0.55 0.00
vt 0.32 0.71 0.00
vt 0.33 0.73 0.00
vt 0.29 0.72 0.00
vt 0.28 0.80 0.00
vt 0.24 0.76 0.00
vt 0.28 0.71 0.00
vt 0.23 0.71 0.00
vt 0.23 0.85 0.00
vt 0.27 0.88 0.00
vt 0.16 0.75 0.00
vt 0.20 0.70 0.00
vt 0.18 0.91 0.00
vt 0.27 0.93 0.00
vt 0.29 0.97 0.00
vt 0.26 0.96 0.00
vt 0.21 0.97 0.00
vt 0.18 0.96 0.00
vt 0.11 0.94 0.00
vt 0.13 0.84 0.00
vt 0.06 0.91 0.00
vt 0.08 0.96 0.00
vt 0.04 0.98 0.00
vt 0.03 0.91 0.00
vt 0.10 0.82 0.00
vt 0.11 0.75 0.00
vt 0.16 0.69 0.00
vt 0.15 0.67 0.00
vt 0.18 0.63 0.00
vt 0.63 0.33 0.00
vt 0.66 0.33 0.00
vt 0.63 0.40 0.00
vt 0.60 0.42 0.00
vt 0.57 0.40 0.00
vt 0.64 0.23 0.00
vt 0.63 0.15 0.00
vt 0.61 0.15 0.00
vt 0.59 0.12 0.00
vt 0.55 0.24 0.00
vt 0.56 0.10 0.00
vt 0.54 0.35 0.00
vt 0.10 0.60 0.00
vt 0.07 0.54 0.00
vt 0.10 0.53 0.00
vt 0.06 0.61 0.00
vt 0.04 0.54 0.00
vt 0.03 0.57 0.00
vt 0.10 0.69 0.00
vt 0.02 0.65 0.00
vt 0.06 0.72 0.00
vt 0.08 0.75 0.00
vt 0.05 0.79 0.00
vt 0.03 0.71 0.00
vt 0.06 0.84 0.00
vt 0.01 0.76 0.00
vt 0.04 0.86 0.00
vt 0.43 0.74 0.00
vt 0.42 0.79 0.00
vt 0.40 0.74 0.00
vt 0.36 0.72 0.00
vt 0.38 0.68 0.00
vt 0.36 0.66 0.00
vt 0.40 0.80 0.00
vt 0.33 0.82 0.00
vt 0.35 0.93 0.00
vt 0.41 0.91 0.00
vt 0.31 0.95 0.00
vt 0.40 0.94 0.00
vt 0.34 0.98 0.00
vt 0.38 0.95 0.00
vt 0.39 0.35 0.00
vt 0.40 0.33 0.00
vt 0.44 0.38 0.00
vt 0.49 0.29 0.00
vt 0.46 0.27 0.00
vt 0.46 0.37 0.00
vt 0.48 0.22 0.00
vt 0.48 0.37 0.00
vt 0.51 0.19 0.00
vt 0.53 0.22 0.00
vt 0.50 0.37 0.00
vt 0.50 0.30 0.00
vt 0.33 0.34 0.00
vt 0.26 0.29 0.00
vt 0.37 0.31 0.00
vt 0.32 0.26 0.00
vt 0.40 0.29 0.00
vt 0.32 0.20 0.00
vt 0.41 0.25 0.00
vt 0.37 0.21 0.00
vt 0.34 0.18 0.00
vt 0.18 0.52 0.00
vt 0.12 0.52 0.00
vt 0.09 0.50 0.00
vt 0.22 0.42 0.00
vt 0.15 0.41 0.00
vt 0.11 0.43 0.00
vt 0.06 0.41 0.00
vt 0.02 0.50 0.00
vt 0.66 0.80 0.00
vt 0.70 0.95 0.00
vt 0.67 0.96 0.00
vt 0.62 0.85 0.00
vt 0.61 0.67 0.00
vt 0.58 0.86 0.00
vt 0.62 0.97 0.00
vt 0.59 0.98 0.00
vt 0.59 0.73 0.00
vt 0.53 0.86 0.00
vt 0.52 0.96 0.00
vt 0.57 0.68 0.00
vt 0.62 0.63 0.00
vt 0.52 0.81 0.00
vt 0.50 0.96 0.00
vt 0.55 0.57 0.00
vt 0.58 0.55 0.00
vt 0.48 0.64 0.00
vt 0.50 0.58 0.00
vt 0.47 0.73 0.00
vt 0.47 0.92 0.00
vt 0.44 0.78 0.00
vt 0.47 0.98 0.00
vt 0.38 0.11 0.00
vt 0.43 0.09 0.00
vt 0.39 0.15 0.00
vt 0.45 0.19 0.00
vt 0.44 0.22 0.00
vt 0.47 0.21 0.00
vt 0.51 0.14 0.00
vt 0.52 0.12 0.00
vt 0.45 0.07 0.00
vt 0.50 0.07 0.00
vt 0.54 0.07 0.00
vt 0.45 0.03 0.00
vt 0.51 0.04 0.00
vt 0.98 0.14 0.00
# 248 texture coords

o Statue
g Statue
usemtl StatueMat
f 1/1/1 2/2/2 3/3/3 
f 4/4/4 1/1/1 3/3/3 
f 4/4/4 5/5/5 1/1/1 
f 5/5/5 4/4/4 6/6/6 
f 6/6/6 4/4/4 7/7/7 
f 7/7/7 8/8/8 6/6/6 
f 9/9/9 10/10/10 11/11/11 
f 9/9/9 11/11/11 12/12/12 
f 12/12/12 11/11/11 13/13/13 
f 12/12/12 13/13/13 14/14/14 
f 14/14/14 15/15/15 16/16/16 
f 17/17/17 14/14/14 16/16/16 
f 17/17/17 12/12/12 14/14/14 
f 18/18/18 12/12/12 17/17/17 
f 19/19/19 20/20/20 21/21/21 
f 22/22/22 20/20/20 19/19/19 
f 22/22/22 1/23/1 20/20/20 
f 23/24/23 1/23/1 22/22/22 
f 23/24/23 24/25/24 1/23/1 
f 24/25/24 2/26/2 1/23/1 
f 25/27/25 26/28/26 27/29/27 
f 27/29/27 26/28/26 28/30/28 
f 29/31/29 28/30/28 26/28/26 
f 28/30/28 29/31/29 30/32/30 
f 29/31/29 31/33/31 30/32/30 
f 31/33/31 29/31/29 32/34/32 
f 33/35/33 31/33/31 32/34/32 
f 32/34/32 34/36/34 33/35/33 
f 34/36/34 35/37/35 33/35/33 
f 36/38/36 31/33/31 33/35/33 
f 37/39/37 33/35/33 35/37/35 
f 35/37/35 38/40/38 37/39/37 
f 33/35/33 37/39/37 36/38/36 
f 31/33/31 36/38/36 39/41/39 
f 40/42/40 41/43/41 39/41/39 
f 39/41/39 10/44/10 40/42/40 
f 39/41/39 36/38/36 10/44/10 
f 36/38/36 37/39/37 42/45/42 
f 36/38/36 42/45/42 10/44/10 
f 37/39/37 43/46/43 42/45/42 
f 10/44/10 42/45/42 44/47/44 
f 43/46/43 44/47/44 42/45/42 
f 44/47/44 11/48/11 10/44/10 
f 37/39/37 45/49/45 43/46/43 
f 44/47/44 46/50/46 11/48/11 
f 11/48/11 46/50/46 13/51/13 
f 46/50/46 14/52/14 13/51/13 
f 47/53/47 14/52/14 46/50/46 
f 43/46/43 48/54/48 44/47/44 
f 44/47/44 48/54/48 46/50/46 
f 45/49/45 48/54/48 43/46/43 
f 47/53/47 46/50/46 49/55/49 
f 46/50/46 48/54/48 49/55/49 
f 49/55/49 48/54/48 45/49/45 
f 50/56/50 47/53/47 49/55/49 
f 49/55/49 45/49/45 51/57/51 
f 51/57/51 50/56/50 49/55/49 
f 51/57/51 45/49/45 52/58/52 
f 51/57/51 53/59/53 50/56/50 
f 3/60/3 54/61/54 55/62/55 
f 2/63/2 54/61/54 3/60/3 
f 54/61/54 2/63/2 56/64/56 
f 56/64/56 57/65/57 54/61/54 
f 56/64/56 58/66/58 57/65/57 
f 59/67/59 58/66/58 56/64/56 
f 2/63/2 24/68/24 56/64/56 
f 24/68/24 60/69/60 59/67/59 
f 24/68/24 23/70/23 61/71/61 
f 24/68/24 61/71/61 62/72/62 
f 24/68/24 62/72/62 60/69/60 
f 61/71/61 63/73/63 62/72/62 
f 64/74/64 65/75/65 60/69/60 
f 62/72/62 64/74/64 60/69/60 
f 62/72/62 63/73/63 66/76/66 
f 63/73/63 67/77/67 66/76/66 
f 67/77/67 68/78/68 66/76/66 
f 63/73/63 69/79/69 67/77/67 
f 67/77/67 70/80/70 68/78/68 
f 69/79/69 70/80/70 67/77/67 
f 64/74/64 71/81/71 72/82/72 
f 73/83/73 71/81/71 64/74/64 
f 71/81/71 73/83/73 53/84/53 
f 53/84/53 73/83/73 50/85/50 
f 62/72/62 74/86/74 64/74/64 
f 74/86/74 73/83/73 64/74/64 
f 62/72/62 75/87/75 74/86/74 
f 76/88/76 50/85/50 73/83/73 
f 73/83/73 74/86/74 76/88/76 
f 75/87/75 77/89/77 78/90/78 
f 15/91/15 79/92/79 76/88/76 
f 79/92/79 15/91/15 14/93/14 
f 76/88/76 80/94/80 15/91/15 
f 80/94/80 16/95/16 15/91/15 
f 81/96/81 16/95/16 80/94/80 
f 82/97/82 80/94/80 76/88/76 
f 82/97/82 81/96/81 80/94/80 
f 74/86/74 82/97/82 76/88/76 
f 83/98/83 81/96/81 84/99/84 
f 82/97/82 74/86/74 85/100/85 
f 85/100/85 81/96/81 82/97/82 
f 84/99/84 81/96/81 85/100/85 
f 85/100/85 74/86/74 75/87/75 
f 75/87/75 78/90/78 85/100/85 
f 27/101/27 84/99/84 85/100/85 
f 78/90/78 27/101/27 85/100/85 
f 25/102/25 27/101/27 78/90/78 
f 3/103/3 55/104/55 4/105/4 
f 55/104/55 54/106/54 4/105/4 
f 54/106/54 86/107/86 4/105/4 
f 4/105/4 86/107/86 7/108/7 
f 86/107/86 54/106/54 87/109/87 
f 87/109/87 7/108/7 86/107/86 
f 87/109/87 54/106/54 57/110/57 
f 87/109/87 88/111/88 7/108/7 
f 87/109/87 57/110/57 58/112/58 
f 88/111/88 87/109/87 89/113/89 
f 87/109/87 58/112/58 89/113/89 
f 66/114/66 90/115/90 62/116/62 
f 91/117/91 62/116/62 90/115/90 
f 92/118/92 62/116/62 91/117/91 
f 62/116/62 92/118/92 93/119/93 
f 93/119/93 92/118/92 94/120/94 
f 95/121/95 92/118/92 91/117/91 
f 21/122/21 95/121/95 91/117/91 
f 96/123/96 94/120/94 92/118/92 
f 95/121/95 96/123/96 92/118/92 
f 96/123/96 97/124/97 94/120/94 
f 95/121/95 21/122/21 98/125/98 
f 98/125/98 21/122/21 20/126/20 
f 1/127/1 5/128/5 20/126/20 
f 5/128/5 98/125/98 20/126/20 
f 98/125/98 5/128/5 6/129/6 
f 8/130/8 98/125/98 6/129/6 
f 8/130/8 99/131/99 98/125/98 
f 95/121/95 98/125/98 100/132/100 
f 95/121/95 100/132/100 96/123/96 
f 98/125/98 99/131/99 101/133/101 
f 101/133/101 100/132/100 98/125/98 
f 102/134/102 101/133/101 99/131/99 
f 102/134/102 59/135/59 101/133/101 
f 101/133/101 59/135/59 60/136/60 
f 103/137/103 100/132/100 101/133/101 
f 103/137/103 104/138/104 100/132/100 
f 104/138/104 96/123/96 100/132/100 
f 96/123/96 104/138/104 105/139/105 
f 96/123/96 105/139/105 97/124/97 
f 105/139/105 104/138/104 106/140/106 
f 107/141/107 97/124/97 105/139/105 
f 106/140/106 107/141/107 105/139/105 
f 90/142/90 66/143/66 68/144/68 
f 70/145/70 90/142/90 68/144/68 
f 70/145/70 69/146/69 90/142/90 
f 69/146/69 91/147/91 90/142/90 
f 21/148/21 91/147/91 69/146/69 
f 19/149/19 21/148/21 69/146/69 
f 22/150/22 19/149/19 69/146/69 
f 69/146/69 61/151/61 22/150/22 
f 23/152/23 22/150/22 61/151/61 
f 63/153/63 61/151/61 69/146/69 
f 106/154/106 108/155/108 107/156/107 
f 106/154/106 109/157/109 108/155/108 
f 109/157/109 37/158/37 108/155/108 
f 109/157/109 110/159/110 37/158/37 
f 106/154/106 104/160/104 109/157/109 
f 110/159/110 109/157/109 111/161/111 
f 104/160/104 112/162/112 109/157/109 
f 103/163/103 112/162/112 104/160/104 
f 109/157/109 113/164/113 111/161/111 
f 113/164/113 109/157/109 112/162/112 
f 112/162/112 103/163/103 113/164/113 
f 114/165/114 111/161/111 113/164/113 
f 103/163/103 101/166/101 113/164/113 
f 114/165/114 113/164/113 65/167/65 
f 113/164/113 101/166/101 60/168/60 
f 113/164/113 60/168/60 65/167/65 
f 115/169/115 116/170/116 117/171/117 
f 117/171/117 116/170/116 83/172/83 
f 118/173/118 117/171/117 83/172/83 
f 118/173/118 83/172/83 84/174/84 
f 119/175/119 83/172/83 116/170/116 
f 83/172/83 119/175/119 81/176/81 
f 120/177/120 81/176/81 119/175/119 
f 9/178/9 120/177/120 119/175/119 
f 120/177/120 16/179/16 81/176/81 
f 120/177/120 9/178/9 12/180/12 
f 16/179/16 120/177/120 17/181/17 
f 18/182/18 120/177/120 12/180/12 
f 18/182/18 17/181/17 120/177/120 
f 37/183/37 110/184/110 45/185/45 
f 45/185/45 110/184/110 72/186/72 
f 111/187/111 72/186/72 110/184/110 
f 45/185/45 72/186/72 52/188/52 
f 114/189/114 72/186/72 111/187/111 
f 72/186/72 51/190/51 52/188/52 
f 114/189/114 65/191/65 72/186/72 
f 65/191/65 64/192/64 72/186/72 
f 53/193/53 51/190/51 72/186/72 
f 72/186/72 71/194/71 53/193/53 
f 10/195/10 9/196/9 40/197/40 
f 121/198/121 40/197/40 9/196/9 
f 40/197/40 121/198/121 41/199/41 
f 121/198/121 9/196/9 119/200/119 
f 41/199/41 121/198/121 119/200/119 
f 119/200/119 39/201/39 41/199/41 
f 122/202/122 39/201/39 119/200/119 
f 116/203/116 122/202/122 119/200/119 
f 7/204/7 88/205/88 89/206/89 
f 89/206/89 8/207/8 7/204/7 
f 8/207/8 89/206/89 99/208/99 
f 89/206/89 102/209/102 99/208/99 
f 102/209/102 89/206/89 59/210/59 
f 89/206/89 58/211/58 59/210/59 
f 75/212/75 62/213/62 93/214/93 
f 123/215/123 75/212/75 93/214/93 
f 123/215/123 77/216/77 75/212/75 
f 124/217/124 123/215/123 93/214/93 
f 94/218/94 124/217/124 93/214/93 
f 94/218/94 97/219/97 124/217/124 
f 125/220/125 77/216/77 123/215/123 
f 123/215/123 124/217/124 125/220/125 
f 97/219/97 126/221/126 124/217/124 
f 124/217/124 126/221/126 125/220/125 
f 126/221/126 97/219/97 107/222/107 
f 77/216/77 125/220/125 127/223/127 
f 125/220/125 126/221/126 127/223/127 
f 127/223/127 78/224/78 77/216/77 
f 126/221/126 107/222/107 128/225/128 
f 127/223/127 126/221/126 128/225/128 
f 128/225/128 107/222/107 108/226/108 
f 78/224/78 127/223/127 26/227/26 
f 25/228/25 78/224/78 26/227/26 
f 127/223/127 32/229/32 26/227/26 
f 29/230/29 26/227/26 32/229/32 
f 127/223/127 128/225/128 32/229/32 
f 128/225/128 34/231/34 32/229/32 
f 128/225/128 38/232/38 34/231/34 
f 38/232/38 128/225/128 108/226/108 
f 34/231/34 38/232/38 35/233/35 
f 108/226/108 37/234/37 38/232/38 
f 28/235/28 30/236/30 27/237/27 
f 30/236/30 129/238/129 27/237/27 
f 129/238/129 84/239/84 27/237/27 
f 84/239/84 129/238/129 118/240/118 
f 117/241/117 118/240/118 129/238/129 
f 117/241/117 129/238/129 30/236/30 
f 115/242/115 117/241/117 30/236/30 
f 115/242/115 30/236/30 31/243/31 
f 130/244/130 115/242/115 31/243/31 
f 130/244/130 116/245/116 115/242/115 
f 130/244/130 31/243/31 39/246/39 
f 130/244/130 122/247/122 116/245/116 
f 130/244/130 39/246/39 122/247/122 
f 56/64/56 24/68/24 59/67/59 
f 47/248/47 79/92/79 14/93/14 
f 47/248/47 50/85/50 79/92/79 
f 79/92/79 50/85/50 76/88/76 
# 256 faces

